REM DIRINDEX 1\2,1\3,1\4
REM DIRNAME cjc077,folder01,folder02,folder03
TITLE ""
FILE "CD1Track21.mp3" MP3
  TRACK 01 AUDIO
    TITLE "0:"
    INDEX 01 00:00:00
  TRACK 02 AUDIO
    TITLE "2:cjc077_0168"
    INDEX 01 00:00:09
  TRACK 03 AUDIO
    TITLE "2:cjc077_0169"
    INDEX 01 00:09:16
  TRACK 04 AUDIO
    TITLE "0:"
    INDEX 01 00:18:66
